<svg xmlns="http://www.w3.org/2000/svg" xmlns:xlink="http://www.w3.org/1999/xlink" width="150" zoomAndPan="magnify" viewBox="0 0 112.5 112.499997" height="150" preserveAspectRatio="xMidYMid meet" version="1.0"><defs><clipPath id="24e8d5ca77"><path d="M 7.699219 0 L 104.023438 0 L 104.023438 112.003906 L 7.699219 112.003906 Z M 7.699219 0 " clip-rule="nonzero"/></clipPath></defs><g clip-path="url(#24e8d5ca77)"><path fill="currentColor" d="M 104.023438 101.761719 L 97.390625 29.585938 C 97.261719 28.1875 96.085938 27.117188 94.679688 27.117188 L 75.703125 27.117188 L 75.703125 19.6875 C 75.703125 8.832031 66.871094 0 56.011719 0 C 45.15625 0 36.324219 8.832031 36.324219 19.6875 L 36.324219 27.117188 L 17.34375 27.117188 C 15.9375 27.117188 14.761719 28.1875 14.632812 29.585938 L 8 101.761719 C 7.753906 104.460938 8.585938 106.941406 10.410156 108.945312 C 12.238281 110.945312 14.632812 112.003906 17.34375 112.003906 L 94.683594 112.003906 C 97.390625 112.003906 99.789062 110.945312 101.613281 108.945312 C 103.4375 106.941406 104.273438 104.460938 104.023438 101.761719 Z M 41.765625 19.6875 C 41.765625 11.832031 48.15625 5.441406 56.011719 5.441406 C 63.867188 5.441406 70.261719 11.832031 70.261719 19.6875 L 70.261719 27.117188 L 41.765625 27.117188 Z M 97.59375 105.277344 C 96.804688 106.140625 95.851562 106.5625 94.683594 106.5625 L 17.34375 106.5625 C 16.171875 106.5625 15.21875 106.140625 14.433594 105.277344 C 13.644531 104.414062 13.3125 103.425781 13.417969 102.261719 L 19.828125 32.558594 L 36.324219 32.558594 L 36.324219 38.457031 C 36.324219 39.960938 37.542969 41.179688 39.042969 41.179688 C 40.546875 41.179688 41.765625 39.960938 41.765625 38.457031 L 41.765625 32.558594 L 70.261719 32.558594 L 70.261719 38.457031 C 70.261719 39.960938 71.480469 41.179688 72.980469 41.179688 C 74.484375 41.179688 75.703125 39.960938 75.703125 38.457031 L 75.703125 32.558594 L 92.199219 32.558594 L 98.605469 102.261719 C 98.710938 103.425781 98.382812 104.414062 97.59375 105.277344 Z M 97.59375 105.277344 " fill-opacity="1" fill-rule="nonzero"/></g></svg>